PathFileType	4	(X/Y/Z)	C:/Users/opensim2020/Desktop/walking_exp_matlab/subject01_walking04_static.trc																																																																																																																															
DataRate	CameraRate	NumFrames	NumMarkers	Units	OrigDataRate	OrigDataStartFrame	OrigNumFrames																																																																																																																											
100	100	7	43	mm	100	1	321																																																																																																																											
Frame#	Time	LFHD			RFHD			LBHD			RBHD			C7			T10			CLAV			STRN			RBAK			LSHO			LUPA			LELB			LFRM			LWRA			LWRB			LFIN			RSHO			RUPA			RELB			RFRM			RWRA			RWRB			RFIN			LASI			RASI			LPSI			RPSI			LTHI			LKNE			LTIB			LANK			LHEE			LTOE			RTHI			RKNE			RTIB			RANK			RHEE			RTOE			*39			*40			*41			*42		
		X1	Y1	Z1	X2	Y2	Z2	X3	Y3	Z3	X4	Y4	Z4	X5	Y5	Z5	X6	Y6	Z6	X7	Y7	Z7	X8	Y8	Z8	X9	Y9	Z9	X10	Y10	Z10	X11	Y11	Z11	X12	Y12	Z12	X13	Y13	Z13	X14	Y14	Z14	X15	Y15	Z15	X16	Y16	Z16	X17	Y17	Z17	X18	Y18	Z18	X19	Y19	Z19	X20	Y20	Z20	X21	Y21	Z21	X22	Y22	Z22	X23	Y23	Z23	X24	Y24	Z24	X25	Y25	Z25	X26	Y26	Z26	X27	Y27	Z27	X28	Y28	Z28	X29	Y29	Z29	X30	Y30	Z30	X31	Y31	Z31	X32	Y32	Z32	X33	Y33	Z33	X34	Y34	Z34	X35	Y35	Z35	X36	Y36	Z36	X37	Y37	Z37	X38	Y38	Z38	X39	Y39	Z39	X40	Y40	Z40	X41	Y41	Z41	X42	Y42	Z42	X43	Y43	Z43
																																																																																																																																		
1	0	-9.0748	1684.60059	-403.93988	-6.37841	1694.07959	-289.82614	-105.87659	1605.02271	-404.71475	-107.16781	1613.16565	-284.16992	-107.49104	1436.88647	-356.1228	-131.4604	1143.14795	-345.90408	40.73457	1376.63562	-345.83334	89.1187	1221.84973	-346.07645	-157.20045	1241.5929	-276.34308	-12.74346	1399.77283	-510.10471	-33.42388	1224.05164	-606.841	-42.4932	1076.32007	-632.24738	9.16648	968.41669	-643.21716	80.715	856.58588	-598.17462	40.01661	850.41998	-642.8761	92.53176	783.81445	-632.93237	-29.37176	1402.07153	-199.03856	-79.90151	1212.98572	-81.91986	-64.36602	1089.52979	-54.6887	-16.4775	972.69977	-35.34523	51.26894	857.8999	-87.59644	32.40714	859.64178	-32.73599	66.5869	782.60938	-50.73373	54.33465	937.36523	-446.22589	43.94983	940.88184	-229.09615	-136.96234	951.99976	-404.36618	-142.66553	957.44232	-261.72852	0.10509	606.29742	-518.08783	-22.78193	472.2323	-508.34152	-75.05785	293.04047	-530.8205	-84.72134	71.56854	-488.33133	-124.13584	39.418	-435.8866	64.31771	33.34036	-509.11621	-30.98916	613.12885	-158.12827	-24.50272	456.02399	-173.81975	-72.21298	288.16391	-151.34814	-79.77822	78.53425	-179.30498	-124.66541	35.46866	-227.66367	61.85632	36.94305	-164.44629	-28.23158	1721.96399	-314.03589	3102.02344	1023.61389	1973.00525	3140.46582	1021.8493	2012.51282	NaN	NaN	NaN
2	0.01	-8.96699	1684.59741	-403.96353	-6.24374	1694.05505	-289.85629	-105.79801	1605.06677	-405.20508	-107.04226	1613.15405	-284.22214	-107.4249	1436.90393	-356.12244	-131.40341	1143.13965	-345.88547	40.77979	1376.62878	-345.86075	89.13623	1221.8208	-346.07809	-157.16931	1241.60071	-276.35992	-12.71227	1399.75439	-510.1344	-33.41289	1223.99841	-606.80334	-42.45531	1076.26416	-632.21326	9.21669	968.36102	-643.18311	80.81031	856.59015	-598.0957	40.10325	850.37366	-642.79559	92.63475	783.80975	-632.87201	-29.31208	1402.06897	-199.069	-79.89944	1212.97253	-81.92095	-64.39006	1089.53748	-54.68731	-16.53561	972.69714	-35.33405	51.20316	857.87842	-87.549	32.34456	859.63995	-32.67826	66.52009	782.6106	-50.68713	54.34462	937.3634	-446.21503	44.00136	940.88159	-229.10077	-136.92613	951.97687	-404.33646	-142.61137	957.45459	-261.77124	0.11627	606.28326	-518.08679	-22.72797	472.23245	-508.32422	-75.01343	293.02786	-530.83038	-84.71862	71.55122	-488.33371	-124.14046	39.39494	-435.89114	64.33909	33.32977	-509.12787	-30.8897	613.14795	-158.0531	-24.49677	456.00558	-173.83827	-72.17818	288.18033	-151.35715	-79.81863	78.53783	-179.31244	-124.61922	35.43518	-227.75822	61.8523	36.93811	-164.44049	-28.3908	1722.15442	-313.98538	3102.17383	1024.25562	1973.02161	3140.55908	1021.82269	2012.46753	NaN	NaN	NaN
3	0.02	-8.86598	1684.60278	-403.97897	-6.15395	1694.05994	-289.8598	-105.68386	1605.05835	-404.77386	-106.97801	1613.1626	-284.21207	-107.3665	1436.91736	-356.15518	-131.3933	1143.14819	-345.87531	40.81241	1376.60278	-345.90234	89.1562	1221.79724	-346.08823	-157.09595	1241.61597	-276.35861	-12.6961	1399.74268	-510.16534	-33.41071	1224.00977	-606.85608	-42.40781	1076.22131	-632.18951	9.25458	968.34515	-643.12085	80.88732	856.58246	-598.01611	40.18938	850.35596	-642.70831	92.7332	783.78192	-632.75208	-29.25188	1402.07349	-199.08286	-79.83992	1213.00647	-81.89477	-64.40327	1089.54089	-54.69539	-16.61341	972.70361	-35.31199	51.15014	857.87689	-87.5062	32.26192	859.60876	-32.64913	66.45062	782.59393	-50.63204	54.36676	937.36407	-446.22052	44.03079	940.87897	-229.08319	-136.91924	951.97473	-404.32132	-142.58374	957.42725	-261.73978	0.15967	606.29425	-518.06885	-22.6716	472.23349	-508.29205	-74.99306	293.02609	-530.81116	-84.74303	71.54539	-488.32697	-124.10327	39.40039	-435.84515	64.30383	33.33182	-509.10443	-30.87389	613.14935	-158.05016	-24.48122	455.99274	-173.8268	-72.14395	288.18484	-151.32262	-79.76092	78.53871	-179.27321	-124.63326	35.44127	-227.70641	61.85485	36.93391	-164.43716	-28.03894	1721.94763	-314.05164	3102.20117	1024.23267	1972.96545	3140.62427	1021.80157	2012.48022	NaN	NaN	NaN
4	0.03	-8.77312	1684.62988	-403.98795	-6.05694	1694.04346	-289.86234	-105.58018	1605.09131	-404.79404	-106.90341	1613.18091	-284.23633	-107.31502	1436.92297	-356.18948	-131.35883	1143.18689	-345.91187	40.883	1376.5741	-345.9256	89.16718	1221.75989	-346.12161	-157.05713	1241.63696	-276.38654	-12.64783	1399.71643	-510.18924	-33.38039	1223.97717	-606.86377	-42.38883	1076.17114	-632.1908	9.30713	968.30981	-643.06079	80.96235	856.57098	-597.90271	40.24829	850.31439	-642.60858	92.81721	783.77026	-632.63702	-29.1829	1402.11438	-199.09773	-79.79519	1213.03613	-81.9133	-64.4237	1089.60596	-54.71062	-16.6399	972.7218	-35.30419	51.07911	857.86316	-87.49458	32.15674	859.62817	-32.6456	66.34657	782.56592	-50.59083	54.37888	937.32892	-446.21558	44.0304	940.87305	-229.08389	-136.92276	951.9826	-404.33243	-142.57907	957.45691	-261.72385	0.18625	606.29022	-518.07709	-22.62949	472.23203	-508.31064	-74.9566	293.01166	-530.80493	-84.69447	71.53942	-488.32062	-124.13667	39.41582	-435.90057	64.31078	33.34331	-509.11823	-30.82889	613.14063	-158.04431	-24.458	455.98895	-173.82907	-72.1518	288.19153	-151.33153	-79.76138	78.56308	-179.254	-124.59847	35.48196	-227.78793	61.85865	36.9164	-164.42909	-28.17967	1722.15881	-313.97293	3102.24658	1024.27234	1973.01123	3140.50073	1021.78625	2012.49841	NaN	NaN	NaN
5	0.04	-8.64327	1684.60876	-403.9837	-6.14989	1694.0741	-289.93585	-105.49654	1605.14099	-405.2955	-106.8021	1613.15674	-284.3132	-107.23222	1436.94751	-356.2467	-131.33221	1143.18994	-345.96951	40.9321	1376.55676	-345.92239	89.1908	1221.75305	-346.1192	-157.03265	1241.65515	-276.41443	-12.57485	1399.69189	-510.22665	-33.32397	1223.94592	-606.85254	-42.36155	1076.13696	-632.12469	9.33029	968.23663	-643.00446	81.02812	856.57904	-597.79797	40.3064	850.26044	-642.51129	92.89178	783.73047	-632.505	-29.13328	1402.13196	-199.09552	-79.78152	1213.06006	-81.92487	-64.44512	1089.6333	-54.73143	-16.69614	972.75153	-35.3331	51.02956	857.86316	-87.47314	32.07224	859.63049	-32.59229	66.26593	782.58783	-50.54255	54.38937	937.34814	-446.2023	44.03626	940.88074	-229.08923	-136.8983	952.01013	-404.33246	-142.56328	957.4234	-261.72879	0.2333	606.28766	-518.06787	-22.59175	472.21231	-508.30692	-74.93466	293.00925	-530.79657	-84.70167	71.54996	-488.33139	-124.11989	39.40425	-435.83371	64.32173	33.30561	-509.09195	-30.7912	613.14252	-158.02516	-24.42848	455.9874	-173.81548	-72.12785	288.21555	-151.31665	-79.77708	78.54346	-179.25771	-124.61849	35.49964	-227.73015	61.86102	36.93727	-164.42769	-28.07293	1722.14136	-313.99347	3102.00488	1023.56995	1973.15735	3140.53955	1021.87299	2012.48914	NaN	NaN	NaN
6	0.05	-8.5466	1684.61743	-404.0116	-6.04436	1694.08508	-289.95294	-105.38406	1605.13306	-404.90329	-106.72874	1613.16919	-284.37332	-107.19724	1436.9718	-356.27948	-131.24504	1143.2041	-345.95285	40.96849	1376.55103	-345.94379	89.22095	1221.75061	-346.1124	-157.01317	1241.70984	-276.42917	-12.53728	1399.6792	-510.2236	-33.27668	1223.92029	-606.82019	-42.42879	1076.08923	-631.79987	9.35615	968.20129	-642.92975	81.06258	856.56311	-597.63983	40.32669	850.23578	-642.40015	92.92891	783.71741	-632.36108	-29.0927	1402.15002	-199.10849	-79.68105	1213.08997	-81.91795	-64.44463	1089.65332	-54.75797	-16.73503	972.78888	-35.35071	50.94395	857.86554	-87.43598	32.01265	859.6709	-32.59879	66.17722	782.62671	-50.51538	54.40721	937.37274	-446.18393	44.03994	940.88379	-229.07137	-136.89885	952.01068	-404.30463	-142.5757	957.45172	-261.69733	0.28204	606.30872	-518.04956	-22.52617	472.21402	-508.29211	-74.88851	293.00217	-530.78015	-84.71114	71.60564	-488.35687	-124.11764	39.41316	-435.83521	64.31717	33.34224	-509.09625	-30.73167	613.15491	-158.034	-24.40058	455.97476	-173.79483	-72.08147	288.23065	-151.2579	-79.75251	78.56811	-179.26555	-124.6647	35.52233	-227.71635	61.85266	36.95867	-164.41779	-27.97636	1722.15808	-314.00409	3102.10034	1024.11462	1972.91968	3140.54492	1021.89777	2012.50586	NaN	NaN	NaN
7	0.06	-8.43584	1684.63281	-404.03793	-5.93264	1694.09119	-289.98596	-105.28238	1605.14221	-404.96771	-106.66544	1613.22107	-284.39963	-107.14436	1436.98096	-356.30234	-131.20744	1143.22644	-345.98981	41.02132	1376.54504	-345.93942	89.23429	1221.72498	-346.10498	-156.9761	1241.74268	-276.44247	-12.45765	1399.67383	-510.2305	-33.20119	1223.91724	-606.83521	-42.39274	1076.07764	-631.75616	9.36594	968.16516	-642.87451	81.10136	856.52631	-597.54803	40.35543	850.2121	-642.28931	92.98018	783.67749	-632.21863	-29.00995	1402.17664	-199.11115	-79.63809	1213.15015	-81.9385	-64.42732	1089.71936	-54.76568	-16.76438	972.82544	-35.34841	50.89206	857.89551	-87.40087	31.93843	859.66425	-32.56266	66.07941	782.58307	-50.49935	54.42717	937.37341	-446.17819	44.02888	940.88367	-229.06171	-136.87279	952.0119	-404.32196	-142.5735	957.45111	-261.69684	0.32667	606.30267	-518.0329	-22.4489	472.23422	-508.28772	-74.83302	293.02155	-530.78107	-84.72809	71.61255	-488.35321	-124.10933	39.43957	-435.85678	64.34898	33.34465	-509.10199	-30.71517	613.14429	-158.03145	-24.39676	456.00043	-173.8049	-72.09232	288.24094	-151.27795	-79.71646	78.5819	-179.21964	-124.71078	35.54256	-227.70673	61.84797	36.94381	-164.43399	-27.90318	1722.17798	-314.06573	3101.96069	1023.51587	1973.14575	3140.53052	1022.02319	2012.49158	NaN	NaN	NaN
